<mxfile host="65bd71144e">
    <diagram id="oqlslN1CY2w_c-xrPP6w" name="Page-1">
        <mxGraphModel dx="1002" dy="565" grid="1" gridSize="10" guides="1" tooltips="1" connect="1" arrows="1" fold="1" page="1" pageScale="1" pageWidth="827" pageHeight="1169" math="0" shadow="0">
            <root>
                <mxCell id="0"/>
                <mxCell id="1" parent="0"/>
                <mxCell id="10" value="Utente" style="swimlane;childLayout=stackLayout;horizontal=1;startSize=30;horizontalStack=0;rounded=1;fontSize=15;fontStyle=0;strokeWidth=2;resizeParent=0;resizeLast=1;shadow=0;dashed=0;align=center;fillColor=#1ba1e2;fontColor=#ffffff;strokeColor=#006EAF;" parent="1" vertex="1">
                    <mxGeometry x="214.25" y="455" width="160" height="145" as="geometry"/>
                </mxCell>
                <mxCell id="11" value="+ PK: Id&#10;+ Nome&#10;+ Cognome&#10;+ Email&#10;+ Password&#10;+ Status" style="align=left;strokeColor=none;fillColor=none;spacingLeft=4;fontSize=15;verticalAlign=top;resizable=0;rotatable=0;part=1;" parent="10" vertex="1">
                    <mxGeometry y="30" width="160" height="115" as="geometry"/>
                </mxCell>
                <mxCell id="18" style="edgeStyle=none;html=1;exitX=0.5;exitY=1;exitDx=0;exitDy=0;entryX=0.5;entryY=0;entryDx=0;entryDy=0;endArrow=none;endFill=0;fontSize=15;" parent="1" source="19" target="10" edge="1">
                    <mxGeometry relative="1" as="geometry">
                        <mxPoint x="388.92999999999984" y="379.3499999999999" as="targetPoint"/>
                    </mxGeometry>
                </mxCell>
                <mxCell id="19" value="Possiede" style="shape=rhombus;perimeter=rhombusPerimeter;whiteSpace=wrap;html=1;align=center;fontSize=15;" parent="1" vertex="1">
                    <mxGeometry x="249.94" y="358.75" width="88.63" height="52.5" as="geometry"/>
                </mxCell>
                <mxCell id="21" value="Claim" style="swimlane;childLayout=stackLayout;horizontal=1;startSize=30;horizontalStack=0;rounded=1;fontSize=15;fontStyle=0;strokeWidth=2;resizeParent=0;resizeLast=1;shadow=0;dashed=0;align=center;fillColor=#1ba1e2;fontColor=#ffffff;strokeColor=#006EAF;" parent="1" vertex="1">
                    <mxGeometry x="218" y="212.5" width="152.5" height="116.25" as="geometry"/>
                </mxCell>
                <mxCell id="22" value="+ Id&#10;+ Descrizione&#10;+ Conto&#10;+ Status" style="align=left;strokeColor=none;fillColor=none;spacingLeft=4;fontSize=15;verticalAlign=top;resizable=0;rotatable=0;part=1;" parent="21" vertex="1">
                    <mxGeometry y="30" width="152.5" height="86.25" as="geometry"/>
                </mxCell>
                <mxCell id="23" style="edgeStyle=none;html=1;exitX=0.5;exitY=0;exitDx=0;exitDy=0;entryX=0.5;entryY=1;entryDx=0;entryDy=0;endArrow=none;endFill=0;fontSize=15;" parent="1" source="19" target="22" edge="1">
                    <mxGeometry relative="1" as="geometry"/>
                </mxCell>
                <mxCell id="30" value="(1, 1)" style="text;html=1;align=center;verticalAlign=middle;resizable=0;points=[];autosize=1;strokeColor=none;fillColor=none;fontSize=15;" parent="1" vertex="1">
                    <mxGeometry x="284.25" y="425" width="60" height="30" as="geometry"/>
                </mxCell>
                <mxCell id="31" value="(0, N)" style="text;html=1;align=center;verticalAlign=middle;resizable=0;points=[];autosize=1;strokeColor=none;fillColor=none;fontSize=15;" parent="1" vertex="1">
                    <mxGeometry x="289.25" y="328.75" width="60" height="30" as="geometry"/>
                </mxCell>
                <mxCell id="33" style="edgeStyle=none;html=1;exitX=0;exitY=0.75;exitDx=0;exitDy=0;endArrow=none;endFill=0;fontSize=15;" parent="1" source="34" edge="1">
                    <mxGeometry relative="1" as="geometry">
                        <mxPoint x="503" y="294.4166666666672" as="targetPoint"/>
                    </mxGeometry>
                </mxCell>
                <mxCell id="34" value="Abbonamento &lt;br style=&quot;font-size: 15px;&quot;&gt;Cliente" style="whiteSpace=wrap;html=1;fillColor=#1ba1e2;fontColor=#ffffff;strokeColor=#006EAF;fontSize=15;" parent="1" vertex="1">
                    <mxGeometry x="578" y="250" width="130" height="60" as="geometry"/>
                </mxCell>
                <mxCell id="35" style="edgeStyle=none;html=1;exitX=0;exitY=0.75;exitDx=0;exitDy=0;endArrow=none;endFill=0;fontSize=15;" parent="1" source="36" edge="1">
                    <mxGeometry relative="1" as="geometry">
                        <mxPoint x="503" y="343.75" as="targetPoint"/>
                        <Array as="points">
                            <mxPoint x="503" y="388.75"/>
                        </Array>
                    </mxGeometry>
                </mxCell>
                <mxCell id="36" value="Abbonamento Venditore" style="whiteSpace=wrap;html=1;fillColor=#1ba1e2;fontColor=#ffffff;strokeColor=#006EAF;fontSize=15;" parent="1" vertex="1">
                    <mxGeometry x="578" y="343.75" width="130" height="60" as="geometry"/>
                </mxCell>
                <mxCell id="37" style="edgeStyle=none;html=1;exitX=0;exitY=0.75;exitDx=0;exitDy=0;endArrow=none;endFill=0;fontSize=15;" parent="1" source="38" edge="1">
                    <mxGeometry relative="1" as="geometry">
                        <mxPoint x="503" y="213.75" as="targetPoint"/>
                        <Array as="points">
                            <mxPoint x="503" y="124.75"/>
                        </Array>
                    </mxGeometry>
                </mxCell>
                <mxCell id="38" value="&lt;br style=&quot;font-size: 15px;&quot;&gt;Cliente" style="whiteSpace=wrap;html=1;fillColor=#1ba1e2;fontColor=#ffffff;strokeColor=#006EAF;fontSize=15;" parent="1" vertex="1">
                    <mxGeometry x="578" y="80" width="130" height="60" as="geometry"/>
                </mxCell>
                <mxCell id="39" style="edgeStyle=none;html=1;exitX=0;exitY=0.5;exitDx=0;exitDy=0;endArrow=none;endFill=0;fontSize=15;" parent="1" source="40" edge="1">
                    <mxGeometry relative="1" as="geometry">
                        <mxPoint x="503" y="263.75" as="targetPoint"/>
                        <Array as="points">
                            <mxPoint x="543" y="199.75"/>
                            <mxPoint x="543" y="263.75"/>
                        </Array>
                    </mxGeometry>
                </mxCell>
                <mxCell id="40" value="Venditore" style="whiteSpace=wrap;html=1;fillColor=#1ba1e2;fontColor=#ffffff;strokeColor=#006EAF;fontSize=15;" parent="1" vertex="1">
                    <mxGeometry x="578" y="170" width="130" height="60" as="geometry"/>
                </mxCell>
                <mxCell id="41" value="" style="shape=singleArrow;whiteSpace=wrap;html=1;direction=west;arrowWidth=0.28395061728394666;arrowSize=0.4277777777777809;fillColor=#1ba1e2;fontColor=#ffffff;strokeColor=#006EAF;fontSize=15;" parent="1" vertex="1">
                    <mxGeometry x="390.5" y="251.25" width="82.5" height="52.5" as="geometry"/>
                </mxCell>
                <mxCell id="42" value="" style="endArrow=none;html=1;fontSize=15;" parent="1" edge="1">
                    <mxGeometry width="50" height="50" relative="1" as="geometry">
                        <mxPoint x="503" y="343.75" as="sourcePoint"/>
                        <mxPoint x="503" y="213.75" as="targetPoint"/>
                    </mxGeometry>
                </mxCell>
                <mxCell id="43" value="(t, e)" style="text;html=1;align=center;verticalAlign=middle;resizable=0;points=[];autosize=1;strokeColor=none;fillColor=none;fontSize=15;" parent="1" vertex="1">
                    <mxGeometry x="438" y="298.75" width="50" height="30" as="geometry"/>
                </mxCell>
            </root>
        </mxGraphModel>
    </diagram>
</mxfile>